PathFileType	4	(X/Y/Z)	StaticT.trc																																																																									
DataRate	CameraRate	NumFrames	NumMarkers	Units	OrigDataRate	OrigDataStartFrame	OrigNumFrames																																																																					
100	100	8	25	mm	100	420	481																																																																					
Frame#	Time	AA			AI			Ant_Sh			CV7			GH			LAH			Lat_Sh			LCAJ			LPH			Post_Sh			RAH			RCAJ			RHLE			RHME			RPH			RUA			SJN			SXS			TS			TV8			centelbow			centpxt8			centijc7			centLPHRPH			ScapulaThoracicContactPt		
		X1	Y1	Z1	X2	Y2	Z2	X3	Y3	Z3	X4	Y4	Z4	X5	Y5	Z5	X6	Y6	Z6	X7	Y7	Z7	X8	Y8	Z8	X9	Y9	Z9	X10	Y10	Z10	X11	Y11	Z11	X12	Y12	Z12	X13	Y13	Z13	X14	Y14	Z14	X15	Y15	Z15	X16	Y16	Z16	X17	Y17	Z17	X18	Y18	Z18	X19	Y19	Z19	X20	Y20	Z20	X21	Y21	Z21	X22	Y22	Z22	X23	Y23	Z23	X24	Y24	Z24	X25	Y25	Z25
																																																																												
421	4.2	-751.5200806	1558.162476	763.475708	-768.3610229	1376.119629	721.8078613	-640.687561	1576.114014	778.3876953	-746.1351929	1597.44104	583.4750977	-693.0072632	1549.605591	776.3578491	-525.6608887	1778.680542	556.6408081	-712.3504639	1586.685913	790.6868896	-695.6741333	1595.109863	438.6660461	-725.4451294	1731.846436	517.6101074	-765.6134644	1512.818604	773.5410156	-543.7180786	1778.597046	653.8180542	-704.4702759	1589.61377	731.5840454	-721.5008545	1524.099243	1051.381226	-606.6450806	1477.978394	1057.702759	-739.078125	1734.528809	633.4383545	-722.2362671	1461.020264	905.4500732	-581.7826538	1521.513916	591.7855835	-520.1481934	1342.50708	592.7463379	-800.8375244	1505.939697	675.46698	-753.2594604	1310.140869	585.2776489	-664.0729675	1501.038818	1054.541992	-636.7038269	1326.323975	589.0119934	-663.9589233	1559.477478	587.6303406	-732.2616272	1733.187622	575.524231	-773.572876	1480.073934	720.2501831
422	4.21	-751.4995117	1558.200439	763.484314	-768.3236084	1376.099121	721.7926636	-640.7025757	1576.116333	778.3768921	-746.0793457	1597.43811	583.4781494	-692.9801636	1549.599121	776.3537598	-525.6524658	1778.651245	556.6430664	-712.3519897	1586.696533	790.6847534	-695.6362915	1595.102051	438.6964722	-725.3751831	1731.832642	517.6221924	-765.5389404	1512.794434	773.5457153	-543.6621704	1778.581055	653.8225098	-704.4523315	1589.625122	731.5767822	-721.4091187	1524.129395	1051.345337	-606.6012573	1477.980103	1057.730225	-739.0276489	1734.536865	633.4562988	-722.1934814	1461.063843	905.4702148	-581.7375488	1521.510864	591.8162231	-520.1480103	1342.50708	592.7460938	-800.7640991	1505.915771	675.4709473	-753.2597656	1310.119507	585.2722778	-664.005188	1501.054749	1054.537781	-636.7038879	1326.313293	589.0091858	-663.9084473	1559.474487	587.6471863	-732.201416	1733.184753	575.5392456	-773.5290731	1480.071777	720.2493083
423	4.22	-751.4936523	1558.15918	763.4458008	-768.317688	1376.146851	721.7921143	-640.6783447	1576.104126	778.3972168	-746.0699463	1597.453247	583.4520264	-692.9733887	1549.596802	776.3671265	-525.5899658	1778.654297	556.6546631	-712.3325195	1586.693604	790.6796265	-695.5924683	1595.091431	438.7094727	-725.3954468	1731.828003	517.5977783	-765.5386353	1512.815186	773.5502319	-543.6206665	1778.576538	653.8027954	-704.4057007	1589.587158	731.59552	-721.4147949	1524.124146	1051.354614	-606.5903931	1478.03772	1057.696655	-738.9887085	1734.574341	633.4356689	-722.1934814	1461.084839	905.4746704	-581.7380371	1521.510132	591.8181763	-520.0921631	1342.466187	592.7324829	-800.7953491	1505.945679	675.4455566	-753.2260132	1310.130249	585.3078003	-664.002594	1501.080933	1054.525635	-636.6590881	1326.298218	589.0201416	-663.9039917	1559.481689	587.6351013	-732.1920776	1733.201172	575.5167236	-773.5355632	1480.083903	720.2278239
424	4.23	-751.4896851	1558.209473	763.4825439	-768.2914429	1376.109863	721.828064	-640.6599731	1576.123291	778.3731079	-746.0355225	1597.44043	583.5032959	-692.9543457	1549.601685	776.3656616	-525.5339355	1778.672607	556.6854248	-712.3014526	1586.667847	790.6619263	-695.5466309	1595.101929	438.7052917	-725.2824097	1731.81897	517.6126709	-765.507019	1512.806152	773.5805664	-543.5454712	1778.580811	653.8149414	-704.4057007	1589.587158	731.59552	-721.4551392	1524.166504	1051.373535	-606.605835	1478.078491	1057.743408	-738.9857788	1734.570679	633.484314	-722.1619873	1461.075806	905.5054932	-581.7463989	1521.495972	591.8618164	-520.0909424	1342.470093	592.7249756	-800.7640991	1505.915771	675.4709473	-753.2261353	1310.130127	585.3078003	-664.0304871	1501.122498	1054.558472	-636.6585388	1326.30011	589.0163879	-663.8909607	1559.468201	587.6825562	-732.1340942	1733.194824	575.5484924	-773.5150757	1480.078369	720.2605184
425	4.24	-751.4978638	1558.191895	763.5023804	-768.3242188	1376.0979	721.7926636	-640.6377563	1576.130981	778.3786621	-746.0022583	1597.437134	583.5385742	-692.9509277	1549.603394	776.3544312	-525.5415039	1778.640991	556.6311035	-712.3093262	1586.685791	790.6758423	-695.5595093	1595.109985	438.7119446	-725.2770386	1731.804199	517.626709	-765.5390015	1512.794434	773.5457153	-543.5454712	1778.580811	653.8149414	-704.4510498	1589.623291	731.6738892	-721.4551392	1524.166504	1051.373535	-606.5637207	1478.079468	1057.768066	-738.9179688	1734.552246	633.4438477	-722.1676636	1461.049561	905.5108032	-581.6981812	1521.457886	591.8629761	-520.052124	1342.461304	592.7741699	-800.7581177	1505.962524	675.4703979	-753.2261353	1310.130127	585.3078003	-664.0094299	1501.122986	1054.570801	-636.6391296	1326.295715	589.0409851	-663.8502197	1559.44751	587.7007751	-732.0975037	1733.178223	575.5352783	-773.5267334	1480.084106	720.2551473
426	4.25	-751.453064	1558.18042	763.5130615	-768.2912598	1376.131104	721.8330688	-640.6490479	1576.131836	778.4320679	-745.973999	1597.404663	583.4694214	-692.9429321	1549.619141	776.3978882	-525.5294189	1778.633301	556.6421509	-712.2861938	1586.674683	790.6975708	-695.5401001	1595.074463	438.7315979	-725.2793579	1731.818848	517.6240845	-765.5015869	1512.832275	773.5753784	-543.5042114	1778.578003	653.795166	-704.4326782	1589.636353	731.6661987	-721.3731689	1524.209717	1051.383423	-606.5626221	1478.031128	1057.766479	-738.9134521	1734.545898	633.4440308	-722.1173096	1461.059692	905.4805298	-581.7006836	1521.453003	591.8741455	-520.057312	1342.45105	592.7991333	-800.7263794	1505.953247	675.5004272	-753.1507568	1310.10376	585.3114624	-663.9678955	1501.120422	1054.574951	-636.6040344	1326.277405	589.0552979	-663.8373413	1559.428833	587.6717834	-732.096405	1733.182373	575.5340576	-773.4902344	1480.088257	720.2821859
427	4.26	-751.4440308	1558.186768	763.4744263	-768.2854004	1376.116089	721.8173828	-640.6137695	1576.138306	778.4133301	-745.937439	1597.445801	583.4951782	-692.9036255	1549.632446	776.3876953	-525.4898682	1778.637939	556.6498413	-712.2419434	1586.687622	790.7124634	-695.4949341	1595.115112	438.7583618	-725.2670898	1731.824219	517.6221313	-765.5015869	1512.832275	773.5753784	-543.4942017	1778.580811	653.8389893	-704.3961182	1589.640869	731.6425171	-721.4135132	1524.252075	1051.402344	-606.5612183	1478.078247	1057.778442	-738.9160767	1734.581665	633.4400024	-722.1173096	1461.059692	905.4805298	-581.7070923	1521.495361	591.9035645	-520.0161133	1342.444092	592.8400269	-800.6901245	1505.912476	675.4795532	-753.1503906	1310.125244	585.3168335	-663.9873657	1501.165161	1054.590393	-636.583252	1326.284668	589.0784302	-663.8222656	1559.470581	587.6993713	-732.0915833	1733.202942	575.5310669	-773.4731852	1480.071777	720.2571208
428	4.27	-751.4398804	1558.238281	763.5108032	-768.2589111	1376.100586	721.8583984	-640.6032715	1576.141846	778.4571533	-745.9368286	1597.447632	583.5071411	-692.8735352	1549.639771	776.4046021	-525.4515381	1778.652466	556.703186	-712.2160034	1586.681274	790.7067261	-695.4801025	1595.098755	438.7540894	-725.2019653	1731.795288	517.6322632	-765.458252	1512.837891	773.5542603	-543.4505005	1778.562744	653.8192749	-704.3865356	1589.645508	731.687439	-721.3426514	1524.201416	1051.414429	-606.569458	1478.117188	1057.811646	-738.8792725	1734.568726	633.4683838	-722.0801392	1461.076904	905.5060425	-581.6618042	1521.491455	591.9276123	-520.0135498	1342.452026	592.8262939	-800.6528931	1505.929321	675.5043945	-753.1112671	1310.141113	585.3411865	-663.9560547	1501.159302	1054.613037	-636.5624084	1326.29657	589.0837402	-663.7993164	1559.469543	587.7173767	-732.0406189	1733.182007	575.5503235	-773.4505615	1480.089396	720.2911987
